<svg width="32" height="32" viewBox="0 0 32 32" fill="none" xmlns="http://www.w3.org/2000/svg">
<path d="M23.7467 5.95999C23.64 5.95999 23.5333 5.93332 23.44 5.87999C20.88 4.55999 18.6667 3.99999 16.0133 3.99999C13.3733 3.99999 10.8667 4.62666 8.58667 5.87999C8.26667 6.05332 7.86667 5.93332 7.68 5.61332C7.50667 5.29332 7.62667 4.87999 7.94667 4.70666C10.4267 3.35999 13.1467 2.66666 16.0133 2.66666C18.8533 2.66666 21.3333 3.29332 24.0533 4.69332C24.3867 4.86666 24.5067 5.26666 24.3333 5.58666C24.2133 5.82666 23.9867 5.95999 23.7467 5.95999ZM4.66667 12.96C4.53333 12.96 4.4 12.92 4.28 12.84C3.97333 12.6267 3.90667 12.2133 4.12 11.9067C5.44 10.04 7.12 8.57332 9.12 7.54666C13.3067 5.38666 18.6667 5.37332 22.8667 7.53332C24.8667 8.55999 26.5467 10.0133 27.8667 11.8667C28.08 12.16 28.0133 12.5867 27.7067 12.8C27.4 13.0133 26.9867 12.9467 26.7733 12.64C25.5733 10.96 24.0533 9.63999 22.2533 8.71999C18.4267 6.75999 13.5333 6.75999 9.72 8.73332C7.90667 9.66666 6.38667 11 5.18667 12.68C5.08 12.8667 4.88 12.96 4.66667 12.96ZM13 29.0533C12.8267 29.0533 12.6533 28.9867 12.5333 28.8533C11.3733 27.6933 10.7467 26.9467 9.85333 25.3333C8.93333 23.6933 8.45333 21.6933 8.45333 19.5467C8.45333 15.5867 11.84 12.36 16 12.36C20.16 12.36 23.5467 15.5867 23.5467 19.5467C23.5467 19.92 23.2533 20.2133 22.88 20.2133C22.5067 20.2133 22.2133 19.92 22.2133 19.5467C22.2133 16.32 19.4267 13.6933 16 13.6933C12.5733 13.6933 9.78667 16.32 9.78667 19.5467C9.78667 21.4667 10.2133 23.24 11.0267 24.68C11.88 26.2133 12.4667 26.8667 13.4933 27.9067C13.7467 28.1733 13.7467 28.5867 13.4933 28.8533C13.3467 28.9867 13.1733 29.0533 13 29.0533ZM22.56 26.5867C20.9733 26.5867 19.5733 26.1867 18.4267 25.4C16.44 24.0533 15.2533 21.8667 15.2533 19.5467C15.2533 19.1733 15.5467 18.88 15.92 18.88C16.2933 18.88 16.5867 19.1733 16.5867 19.5467C16.5867 21.4267 17.5467 23.2 19.1733 24.2933C20.12 24.9333 21.2267 25.24 22.56 25.24C22.88 25.24 23.4133 25.2 23.9467 25.1067C24.3067 25.04 24.6533 25.28 24.72 25.6533C24.7867 26.0133 24.5467 26.36 24.1733 26.4267C23.4133 26.5733 22.7467 26.5867 22.56 26.5867ZM19.88 29.3333C19.8267 29.3333 19.76 29.32 19.7067 29.3067C17.5867 28.72 16.2 27.9333 14.7467 26.5067C12.88 24.6533 11.8533 22.1867 11.8533 19.5467C11.8533 17.3867 13.6933 15.6267 15.96 15.6267C18.2267 15.6267 20.0667 17.3867 20.0667 19.5467C20.0667 20.9733 21.3067 22.1333 22.84 22.1333C24.3733 22.1333 25.6133 20.9733 25.6133 19.5467C25.6133 14.52 21.28 10.44 15.9467 10.44C12.16 10.44 8.69333 12.5467 7.13333 15.8133C6.61333 16.8933 6.34667 18.16 6.34667 19.5467C6.34667 20.5867 6.44 22.2267 7.24 24.36C7.37333 24.7067 7.2 25.0933 6.85333 25.2133C6.50667 25.3467 6.12 25.16 6 24.8267C5.34667 23.08 5.02667 21.3467 5.02667 19.5467C5.02667 17.9467 5.33333 16.4933 5.93333 15.2267C7.70667 11.5067 11.64 9.09332 15.9467 9.09332C22.0133 9.09332 26.9467 13.7733 26.9467 19.5333C26.9467 21.6933 25.1067 23.4533 22.84 23.4533C20.5733 23.4533 18.7333 21.6933 18.7333 19.5333C18.7333 18.1067 17.4933 16.9467 15.96 16.9467C14.4267 16.9467 13.1867 18.1067 13.1867 19.5333C13.1867 21.8133 14.0667 23.9467 15.68 25.5467C16.9467 26.8 18.16 27.4933 20.04 28.0133C20.4 28.1067 20.6 28.48 20.5067 28.8267C20.44 29.1333 20.16 29.3333 19.88 29.3333Z" fill="black"/>
</svg>
